<svg width="48" height="48" xmlns="http://www.w3.org/2000/svg">
 <title>poi-large</title>

 <g>
  <title>background</title>
  <rect fill="none" id="canvas_background" height="402" width="582" y="-1" x="-1"/>
 </g>
 <g>
  <title>Layer 1</title>
  <path fill-opacity="0" id="svg_1" fill-rule="evenodd" fill="#333333" stroke-width="2" stroke="currentColor" d="m23.5,24.672414c3.865993,0 7,-3.134007 7,-7c0,-3.865993 -3.134007,-7 -7,-7c-3.865993,0 -7,3.134007 -7,7c0,3.865993 3.134007,7 7,7zm14,-7c0,-7.7 -6.3,-14 -14,-14c-7.7,0 -14,6.3 -14,14c0,7.7 14,27 14,27c0,0 14,-19.3 14,-27z"/>
  <path d="m19.30867,29.914318c0,0 0.150955,0.089382 0.617281,0.493824c0.263794,0.228786 0.541588,0.730566 0.864193,0.864193c0.114058,0.047245 0.246912,0.123457 0.370367,0.123457c0,0 0,0 0.123457,0c0,0 0,0 0.123455,0c0,0 0,0 0,-0.246914c0,-0.123455 0,-0.246912 0,-0.370367c0,-0.246912 0,-0.370369 0.123457,-0.493824c0.123457,-0.123457 0.228731,-0.515194 0.370369,-0.617281c0.223949,-0.161413 0.332411,-0.393333 0.493824,-0.617281c0.102085,-0.141636 0.298622,-0.175167 0.493824,-0.370367c0.195204,-0.195202 0.246912,-0.370369 0.493824,-0.617281c0.123457,-0.123457 0.379766,-0.323126 0.493824,-0.370369c0.161303,-0.066813 0.370369,-0.246912 0.370369,-0.246912c0.123457,-0.123455 0.246912,-0.123455 0.246912,-0.123455c0.123457,-0.123457 0.146421,-0.085501 0.370369,-0.246914c0.141636,-0.102085 0.334003,-0.166195 0.617279,-0.370367c0.223949,-0.161413 0.493826,-0.123457 0.740738,-0.246912c0.246912,-0.123457 0.348608,-0.306944 0.617279,-0.370369c0.120153,-0.028364 0.352188,-0.144825 0.493826,-0.246912c0.223948,-0.161413 0.379765,-0.199667 0.493824,-0.246912c0.161303,-0.066814 0.24691,-0.246912 0.370367,-0.370369c0.123457,-0.123457 0.246914,-0.246912 0.370369,-0.370367c0.123457,-0.123457 0.225239,-0.135542 0.370369,-0.370369c0.064905,-0.105019 0.208954,-0.393333 0.370367,-0.617281c0.102087,-0.141638 0.332521,-0.42701 0.493824,-0.493824c0.114059,-0.047245 0.123457,-0.123455 0.246914,-0.246912c0.123455,-0.123457 0.246912,-0.370369 0.370367,-0.493824c0.123457,-0.123457 0.209064,-0.303555 0.370369,-0.370369c0.114058,-0.047245 0.14642,-0.208956 0.370367,-0.370367c0.141638,-0.102087 0.132854,-0.199667 0.246914,-0.246912c0.161303,-0.066814 0.123455,-0.123457 0.123455,-0.370369c0,0 0.123457,-0.123457 0.123457,-0.246912c0,-0.246912 -0.065523,-0.407959 0.123455,-0.864193c0.066814,-0.161304 0.123457,-0.370369 0.123457,-0.617281c0,-0.123455 0.06003,-0.472065 0.123455,-0.740736c0.056728,-0.240307 -0.094488,-0.512619 0,-0.740736c0.066814,-0.161303 0.123455,-0.370369 0.123455,-0.493824c0,-0.123457 0.123459,-0.370369 0.123459,-0.493826c0,-0.123455 0,-0.246912 0,-0.370367c0,-0.123457 0,-0.246912 0,-0.370369c0,-0.123455 0,-0.246912 0,-0.493824c0,-0.123456 0,-0.246912 0,-0.370369c0,-0.123456 0.047245,-0.25631 0,-0.370368c-0.066814,-0.161304 -0.076214,-0.25631 -0.123459,-0.370368c-0.066814,-0.161303 -0.218546,-0.373671 -0.24691,-0.493824c-0.063425,-0.268672 -0.085499,-0.393333 -0.246912,-0.617281c-0.102087,-0.141638 -0.123457,-0.123456 -0.246912,-0.370368c0,0 -0.056643,-0.085608 -0.123457,-0.246912c-0.047245,-0.114058 -0.123457,-0.246912 -0.123457,-0.370369c0,0 -0.123455,-0.123456 -0.123455,-0.246912c0,0 0,0 0,0c-0.123457,-0.123456 -0.03616,-0.159616 -0.123457,-0.246912c-0.087296,-0.087296 -0.123455,-0.123456 -0.246912,-0.246912c0,0 -0.199667,-0.132854 -0.246912,-0.246912c-0.066813,-0.161303 -0.123455,-0.123456 -0.246912,-0.246912c0,0 -0.047245,0.009398 0,0.123456c0.066814,0.161304 0.199667,0.379766 0.246912,0.493824c0.066814,0.161304 0.076212,0.25631 0.123457,0.370368c0.066813,0.161303 0.123455,0.246912 0.123455,0.370369c0,0 0,0.123456 0,0.123456c0,0 0,0.123456 0,0.123456c0,0 0,0 0.123457,0.123456c0,0 0,0.123456 0,0.123456c0,0.123456 0,0.123456 0.123455,0.246912c0,0 0.028969,0.265707 0.123457,0.493824c0.066813,0.161304 0.123455,0.370369 0.246912,0.493825c0.123457,0.123456 -0.051136,0.319231 0.123457,0.493824c0.087296,0.087296 0.123455,0.123456 0.123455,0.123456c0,0.123456 0.123457,0.123456 0.123457,0.246912c0,0 -0.03616,0.087297 -0.123457,0c-0.174593,-0.174593 -0.164442,-0.645596 -0.370369,-1.111104c-0.180079,-0.407076 -0.391737,-0.722555 -0.493824,-0.864193c-0.161413,-0.223948 -0.246912,-0.370368 -0.246912,-0.370368c-0.123455,-0.123456 -0.085608,-0.180099 -0.246912,-0.246912c-0.114058,-0.047244 -0.246912,-0.123456 -0.370369,-0.246913c-0.123455,-0.123456 -0.085608,-0.303555 -0.246912,-0.370368c-0.114058,-0.047244 -0.246912,-0.123456 -0.246912,-0.123456c-0.123455,-0.123456 -0.180098,-0.085608 -0.246912,-0.246912c-0.047245,-0.114058 -0.123455,-0.123455 -0.246912,-0.246912c-0.123455,-0.123456 -0.123455,-0.123456 -0.246912,-0.246913c-0.123455,-0.123456 -0.269876,-0.208955 -0.493824,-0.370368c-0.283276,-0.204173 -0.228731,-0.268282 -0.370369,-0.370368c-0.223949,-0.161412 -0.379765,-0.199667 -0.493824,-0.246912c-0.161303,-0.066814 -0.225153,-0.306943 -0.493824,-0.370368c-0.120153,-0.028364 -0.269875,-0.085501 -0.493824,-0.246913c-0.141638,-0.102086 -0.269875,-0.0855 -0.493824,-0.246912c-0.141638,-0.102086 -0.265709,-0.028967 -0.493826,-0.123456c-0.161303,-0.066814 -0.370367,-0.123456 -0.617279,-0.123456c-0.246912,0 -0.493826,-0.123456 -0.740738,-0.123456c-0.246912,0 -0.493824,0 -0.864191,0c-0.123457,0 -0.370369,0 -0.617281,0c-0.123457,0 -0.370369,0 -0.617281,0c-0.123455,0 -0.246912,0 -0.370369,0c-0.123455,0 -0.246912,0 -0.370367,0c0,0 -0.085609,0.056642 -0.246912,0.123456c-0.114059,0.047245 -0.123457,0.123456 -0.370369,0.246912c0,0 -0.123455,0.123456 -0.246912,0.246912c-0.246912,0.246912 -0.370369,0.370369 -0.493824,0.493825c-0.123457,0.123457 -0.209064,0.303555 -0.370369,0.370368c-0.114058,0.047244 -0.085608,0.180099 -0.246912,0.246912c-0.114058,0.047244 -0.123455,0 -0.246912,0.123456c0,0 -0.132853,0.076211 -0.246912,0.123456c-0.161304,0.066813 -0.132854,0.076212 -0.246912,0.123456c-0.161304,0.066813 -0.159616,0.03616 -0.246912,0.123456c-0.087297,0.087297 -0.123457,0.123457 -0.123457,0.123457c0,0.123456 -0.123455,0.123456 -0.123455,0.123456c0,0.123456 -0.123457,0.123456 -0.123457,0.123456c-0.123455,0 -0.123455,0.123456 -0.246912,0.123456c0,0 -0.03616,0.036159 -0.123457,0.123456c-0.087297,0.087296 -0.123455,0.246912 -0.123455,0.246912c-0.123457,0.123456 -0.303555,0.085608 -0.370369,0.246912c-0.047245,0.114058 -0.123455,0.123456 -0.246912,0.246912c0,0 -0.123455,0.123457 -0.123455,0.123457c0,0.123456 -0.03616,0.159616 -0.123457,0.246912c-0.087296,0.087296 -0.159615,0.036159 -0.246912,0.123456c-0.087297,0.087296 -0.03616,0.03616 -0.123456,0.123456c-0.087296,0.087296 0.087296,0.159616 0,0.246912c-0.087296,0.087296 -0.123456,0.123456 -0.123456,0.246912c0,0 -0.123456,0.123456 -0.123456,0.246912c0,0 -0.123456,0.246913 -0.123456,0.246913c0,0.123456 -0.123456,0.246912 -0.123456,0.370368c0,0 0.047245,0.132854 0,0.246912c-0.066813,0.161303 -0.123456,0.123456 -0.123456,0.246912c0,0.123456 -0.123457,0.246912 -0.123457,0.246912c0,0.123456 0,0.123456 0,0.246913c0,0 -0.03616,0.03616 -0.123456,0.123456c-0.087296,0.087296 0,0.246912 0,0.246912c0,0.123456 0,0.246913 0,0.370368c0,0 0,0.123457 0,0.246912c0,0.123457 0,0.123457 0,0.246912c0,0.123457 0,0.246912 0,0.370369c0,0.123455 0,0.370369 0,0.493824c0,0.246912 0,0.493824 0,0.617281c0,0.246912 0,0.370367 0,0.493824c0,0.123457 0,0.246912 0,0.370369c0,0 0,0.123455 0,0.123455c0,0.123457 0,0.246912 0,0.246912c0.123456,0.123457 0.03616,0.159616 0.123456,0.246912c0.087297,0.087297 0.159616,0.03616 0.246913,0.123457c0.087296,0.087296 0.123456,0.246912 0.123456,0.246912c0.123456,0.123457 0.159616,0.159615 0.246912,0.246912c0.087297,0.087297 0,0.123457 0,0.246912c0,0 0.123456,0.123457 0.123456,0.123457c0,0.123455 -0.047245,0.132853 0,0.246912c0.066813,0.161303 0.123456,0.123455 0.123456,0.246912c0,0 0.123457,0.123455 0.123457,0.123455c0,0.123457 0.03616,0.159618 0.123455,0.246914c0.087296,0.087296 0.123457,0.123455 0.123457,0.246912c0,0 0.07621,0.132853 0.123455,0.246912c0.066814,0.161303 0.180099,0.209064 0.246912,0.370367c0.047245,0.114059 0.076214,0.132854 0.123457,0.246912c0.066813,0.161303 0.123455,0.123457 0.246912,0.246912c0,0 0.180098,0.085609 0.246912,0.246914c0.047245,0.114058 0,0.123455 0.123457,0.246912c0,0 0.123455,0 0.123455,0c0.123457,0.123455 0.123457,0.123455 0.246912,0.123455c0.123457,0 0.101698,0.060032 0.370369,0.123457c0.120152,0.028364 0.101696,0.06003 0.370369,0.123455c0.120153,0.028364 0.352186,0.02137 0.493824,0.123457c0.223948,0.161411 0.33252,0.180098 0.493824,0.246912c0.114058,0.047245 0.085609,0.056643 0.246912,0.123455c0.114058,0.047243 0.123455,0 0.246912,0c0,0 0.123457,0.123457 0.123457,0.123457c0,0 0.123455,0 0.246912,0.123457c0,0 0.126757,-0.028364 0.246912,0c0.268671,0.063425 0.33252,0.180098 0.493824,0.246912c0.114058,0.047245 0.246912,0.123455 0.370369,0.123455c0.246912,0 0.370367,0.123457 0.370367,0.123457c0.123457,0 0.246912,0.123455 0.246912,0.123455c0.123457,0 0.246912,0 0.370369,0.123457c0,0 0.123455,0 0.246912,0c0.123457,0 0.123457,0 0.246912,0c0.123457,0 0.123457,0 0.246912,0c0,0 0.123457,0 0.246912,0c0.123457,0 0.246912,0 0.493824,0c0.123457,0 0.246914,0 0.370369,0c0.246912,0 0.370369,-0.123457 0.617281,-0.123457c0.246912,0 0.348608,-0.06003 0.617281,-0.123455c0.120153,-0.028364 0.246912,0 0.493824,0c0.123455,0 0.246912,0 0.370367,0l0,0l0,0" id="svg_2" fill-opacity="0" stroke-opacity="null" stroke-width="2" stroke="currentColor" fill="none"/>
  <path d="m28.444422,23.494602c0,0.123455 0,0.123455 -0.123457,0.123455c-0.123457,0 -0.123457,0 -0.246912,0c-0.123457,0 -0.246912,0 -0.246912,0c0,0.123457 -0.123457,0.123457 -0.123457,0.123457c-0.123455,0 -0.123455,0 -0.246912,0.123455c0,0 -0.123455,0 -0.123455,0c-0.123457,0 -0.123457,0.123457 -0.246912,0.246912c0,0 -0.085501,0.14642 -0.246914,0.370369c-0.102087,0.141638 -0.246912,0.123457 -0.246912,0.246912c0,0.123457 -0.123455,0.123457 -0.123455,0.123457c0,0 -0.123457,0.123455 -0.123457,0.123455c-0.246912,0.123457 -0.269876,0.085499 -0.493824,0.246912c-0.141638,0.102087 -0.34861,0.306944 -0.617281,0.370369c-0.240307,0.056728 -0.609148,0.14127 -0.864191,0.246912c-0.360685,0.149403 -0.478832,0.307833 -0.864193,0.370369c-0.121862,0.019775 -0.246912,0 -0.246912,0c-0.123457,0.123455 -0.370369,0.123455 -0.493826,0.123455c-0.123455,0 -0.370367,0 -0.740736,0c-0.246912,0 -0.493824,0 -0.864193,0c-0.493824,0 -0.602285,-0.060921 -0.987648,-0.123455c-0.121862,-0.019775 -0.455976,-0.056643 -0.617281,-0.123457c-0.228117,-0.09449 -0.389162,-0.028965 -0.617279,-0.123455c-0.161304,-0.066814 -0.209064,-0.180099 -0.370369,-0.246914c-0.228117,-0.09449 -0.379766,-0.07621 -0.493824,-0.123455c-0.161304,-0.066814 -0.159616,-0.159616 -0.246912,-0.246912c-0.087297,-0.087297 -0.379766,-0.076212 -0.493826,-0.123457c-0.161303,-0.066813 -0.209064,-0.303555 -0.370367,-0.370367c-0.114059,-0.047245 -0.228731,-0.144825 -0.370369,-0.246912c-0.223949,-0.161413 -0.370367,-0.246914 -0.370367,-0.246914c-0.123457,-0.123455 -0.246913,-0.123455 -0.246913,-0.246912c0,-0.123455 -0.095092,-0.250214 -0.123456,-0.370367c-0.063425,-0.268671 -0.076212,-0.379766 -0.123456,-0.493824c-0.066813,-0.161304 -0.123456,-0.246914 -0.123456,-0.370369c0,-0.123457 -0.123456,-0.246912 -0.123456,-0.370369c0,-0.246912 -0.180099,-0.33252 -0.246913,-0.493824c-0.047244,-0.114058 -0.183487,-0.348608 -0.246912,-0.617281c-0.028364,-0.120153 -0.056643,-0.33252 -0.123456,-0.493824c-0.094489,-0.228117 -0.123456,-0.370367 -0.123456,-0.617279c0,-0.123457 -0.028967,-0.389164 -0.123456,-0.617281c-0.066813,-0.161304 -0.123456,-0.246912 -0.123456,-0.493824c0,-0.246912 0,-0.370369 0,-0.493826c0,0 0,-0.246912 0,-0.246912c0,-0.123455 -0.056643,-0.33252 -0.123456,-0.493824c-0.094489,-0.228117 0,-0.370367 0,-0.617281c0,-0.123455 -0.123456,-0.370367 -0.123456,-0.740736c0,-0.246912 0,-0.370367 0,-0.61728c0,-0.246912 0,-0.370368 0,-0.493825c0,-0.123456 0,-0.246912 0,-0.370368c0,-0.123456 -0.028364,-0.250215 0,-0.370368c0.063425,-0.268671 0.190184,-0.376973 0.246912,-0.61728c0.063425,-0.268672 0.165121,-0.655553 0.370368,-0.987649c0.091789,-0.148518 0.278579,-0.468763 0.370368,-0.617281c0.205247,-0.332096 0.246913,-0.493824 0.370369,-0.740736c0.123456,-0.246912 0.303555,-0.332521 0.370368,-0.493825c0.094489,-0.228117 0.0855,-0.393332 0.246913,-0.61728c0.102085,-0.141637 0.180098,-0.209064 0.246912,-0.370368c0.047245,-0.114058 0.123455,-0.123456 0.123455,-0.123456c0.123457,-0.123456 0.159616,-0.03616 0.246912,-0.123456c0.087297,-0.087296 0.123457,-0.123457 0.246912,-0.246913c0.123457,-0.123457 0.294676,-0.360196 0.617281,-0.493824c0.228117,-0.094489 0.516787,-0.208956 0.740736,-0.370368c0.141638,-0.102086 0.493826,-0.246912 0.740738,-0.370368c0.246912,-0.123457 0.373671,-0.218549 0.493824,-0.246913c0.268671,-0.063425 0.348608,-0.306943 0.617281,-0.370368c0.120153,-0.028364 0.33252,-0.180098 0.493824,-0.246912c0.228117,-0.094489 0.389162,-0.028967 0.617279,-0.123456c0.161304,-0.066814 0.370369,-0.123456 0.493826,-0.123456c0.246912,0 0.493824,-0.123456 0.617279,-0.123456c0.123457,0 0.370369,0 0.617281,0c0.123457,0 0.370369,0 0.493824,0c0.246912,0 0.370369,0 0.493824,0c0.246914,0 0.370369,0 0.493826,0c0.123455,0 0.246912,0 0.370367,0c0.123457,0 0.159615,0.159616 0.246912,0.246912c0.087297,0.087297 0.370369,0.123456 0.370369,0.123456c0.123457,0.123456 0.101698,0.183487 0.370369,0.246912c0.120153,0.028364 0.101696,0.183487 0.370367,0.246912c0.120153,0.028364 0.182007,0.141894 0.246912,0.246912c0.14513,0.234828 0.332521,0.180099 0.493826,0.246913c0.114058,0.047244 0.246912,0.123456 0.246912,0.123456c0.123455,0 0.123455,0.123456 0.370367,0.123456c0,0 0.132854,0.076212 0.246912,0.123456c0.161304,0.066813 0.246912,0.246912 0.370369,0.246912c0,0 0.123457,0.123456 0.246912,0.123456c0.123457,0 0.25631,0.076211 0.370369,0.123456c0.161303,0.066814 0.209064,0.180098 0.370367,0.246912c0.114059,0.047245 0.225153,0.183488 0.493824,0.246913c0.120153,0.028364 0.250216,0.095092 0.370369,0.123456c0.268671,0.063425 0.370369,0.246912 0.617281,0.370368c0.246912,0.123456 0.42701,0.209064 0.493824,0.370368c0.047245,0.114058 0.123457,0.246912 0.246912,0.370368c0.123457,0.123457 0.199667,0.25631 0.246912,0.370369c0.066814,0.161304 0.152424,0.265707 0.246912,0.493824c0.066814,0.161303 0.155125,0.221848 0.246914,0.370368c0.20525,0.332095 0.184376,0.602288 0.24691,0.987649c0.039551,0.243724 0.123459,0.617281 0.123459,0.864193c0,0.123456 0.056641,0.455977 0.123455,0.61728c0.09449,0.228117 -0.028366,0.497127 0,0.617281c0.063423,0.268671 0.123455,0.370368 0.123455,0.493824c0,0.246912 0,0.493824 0,0.617281c0,0 0,0.123455 0,0.246912c0,0.123455 0,0.123455 0,0.370367c0,0.123457 0,0.370369 0,0.617281c0,0.246912 -0.060921,0.47883 -0.123455,0.864193c-0.019775,0.121862 0,0.370369 0,0.617281c0,0.123455 -0.123455,0.370367 -0.123455,0.493824c0,0.123455 0,0.246912 0,0.370369c0,0.123455 -0.076214,0.25631 -0.123459,0.370367c-0.066814,0.161303 -0.095089,0.250214 -0.123455,0.370369c-0.063423,0.268671 -0.190186,0.376972 -0.246914,0.617281c-0.063423,0.268671 -0.26828,0.352186 -0.370367,0.493824c-0.161411,0.223948 -0.085499,0.39333 -0.246912,0.617279c-0.102087,0.141638 -0.07621,0.25631 -0.123455,0.370369c-0.066814,0.161304 -0.180099,0.085609 -0.246914,0.246912c-0.047245,0.114059 -0.056643,0.085609 -0.123455,0.246912c-0.047245,0.114059 -0.036161,0.159616 -0.123457,0.246912c-0.087296,0.087296 -0.159616,0.159616 -0.246912,0.246912c-0.087296,0.087296 -0.123455,0 -0.246912,0.123457c-0.123455,0.123455 -0.208956,0.269876 -0.370367,0.493824c-0.102087,0.141638 -0.246914,0.123457 -0.370369,0.246912c-0.123457,0.123457 -0.25631,0.199667 -0.370369,0.246912c-0.161303,0.066814 -0.209064,0.180099 -0.370367,0.246912c-0.114059,0.047245 -0.228731,0.144825 -0.370369,0.246912c-0.223949,0.161413 -0.413109,0.334005 -0.617281,0.617281c-0.161411,0.223948 -0.413107,0.45746 -0.617279,0.740736c-0.161413,0.223949 -0.332413,0.393332 -0.493826,0.617281c-0.102087,0.141638 -0.283072,0.159616 -0.370367,0.246912c-0.087297,0.087297 -0.123457,0.246912 -0.123457,0.246912c-0.123455,0 -0.123455,0 -0.123455,0c-0.123457,0 -0.246912,0.123457 -0.370369,0.123457c-0.123455,0 -0.265707,-0.094488 -0.493824,0c-0.161303,0.066813 -0.246912,0.123455 -0.493824,0.123455c-0.123457,0 -0.265707,0.028967 -0.493824,0.123457c-0.161304,0.066814 -0.373672,0.218548 -0.493826,0.246912c-0.268671,0.063425 -0.352186,0.144825 -0.493824,0.246912c-0.223949,0.161413 -0.370367,0.123457 -0.493824,0.123457c-0.246912,0 -0.370369,0 -0.493824,0c-0.246912,0 -0.370369,0 -0.864193,-0.246912c-0.246912,-0.123457 -0.60915,-0.264727 -0.864193,-0.370369c-0.360683,-0.149401 -0.595522,-0.183487 -0.864193,-0.246912c-0.240307,-0.056728 -0.33252,-0.056643 -0.493824,-0.123457c-0.228117,-0.09449 -0.39333,-0.085499 -0.617279,-0.246912c-0.141638,-0.102087 -0.246914,-0.246912 -0.370369,-0.246912c0,0 -0.03616,-0.159615 -0.123457,-0.246912c-0.087296,-0.087296 -0.246912,-0.123455 -0.246912,-0.123455c-0.123455,-0.123457 -0.379765,-0.199669 -0.493824,-0.246914c-0.161303,-0.066813 -0.246912,-0.123455 0,-0.123455c0.370369,0 0.718977,0.06003 0.987648,0.123455c0.360462,0.085093 0.74136,0.105953 0.98765,0.123457c0.870771,0.061884 1.238766,0.038301 2.098753,0.123457c0.626442,0.062029 1.111105,0.123455 1.481474,0.123455c0.246912,0 0.592216,0.031668 0.740736,0.123457c0.332094,0.205246 0.75042,0.097511 1.111105,0.246912c0.255043,0.105642 0.550467,0.085609 0.617279,0.246912c0.047243,0.114058 0,0.123455 0,0.123455c0,0 -0.123455,0 -0.493824,0c-0.493824,0 -1.094843,-0.035627 -1.604929,-0.246912c-0.360683,-0.149399 -0.86628,-0.234985 -1.604929,-0.370367c-0.619192,-0.113487 -1.363533,-0.217451 -2.098753,-0.370369c-0.498358,-0.103653 -1.111105,-0.123457 -1.604929,-0.246912c-0.493824,-0.123457 -0.972656,-0.43129 -1.358017,-0.493824c-0.365587,-0.059326 -0.759532,-0.028967 -0.987649,-0.123457c-0.322606,-0.133627 -0.379766,-0.199667 -0.493825,-0.246912c-0.161303,-0.066813 -0.180099,-0.085608 -0.246912,-0.246912c-0.047245,-0.114059 0,-0.123457 0,-0.246912c0,-0.246912 0,-0.370369 0,-0.493824c0,-0.123457 -0.123456,-0.370369 -0.123456,-0.617281c0,-0.123457 -0.180099,-0.209064 -0.246912,-0.370369c-0.047244,-0.114058 0.037956,-0.39333 -0.123456,-0.617279c-0.102086,-0.141638 -0.278579,-0.468763 -0.370368,-0.617281c-0.205248,-0.332096 -0.161819,-0.503733 -0.246913,-0.864193c-0.063425,-0.268671 -0.041666,-0.408638 -0.246912,-0.740736c-0.091789,-0.14852 -0.161819,-0.503733 -0.246912,-0.864193c-0.063425,-0.268671 -0.246912,-0.617281 -0.370368,-1.111105c-0.123456,-0.493824 -0.13776,-0.859728 -0.246912,-1.23456c-0.142317,-0.488722 -0.123456,-0.617281 -0.123456,-0.864193c0,0 0,0 -0.123457,0c0,0 0.025945,0.133139 -0.123456,0.493824c-0.105642,0.255043 -0.184377,0.602287 -0.246912,0.987648c-0.059327,0.365587 0,0.493826 0,0.617281c0,0.246912 0,0.370369 0,0.493824c0,0.123457 0,0.246912 0,0.246912c0,0.123457 0,0.246914 0,0.246914c0,0 0,0.123455 0,0.123455c0,0.123457 0,0.123457 0,0.246912c0,0.123457 0,0.246912 0,0.493824c0,0.246912 0,0.370369 0,0.617281c0,0.123457 0,0.370369 0,0.493824c0,0.123457 0.056643,0.209064 0.123456,0.370369c0.047244,0.114058 0,0.123455 0,0.370367c0,0 0.123456,0.123457 0.123456,0.246914c0,0.246912 0.123456,0.246912 0.123456,0.370367c0,0.123457 0.03616,0.283072 0.123457,0.370369c0.087296,0.087297 0.123456,0.246912 0.123456,0.246912c0.123456,0.123455 0.180099,0.085608 0.246912,0.246912c0.047245,0.114059 0.123456,0.246912 0.123456,0.246912c0.123456,0.246912 0.180099,0.209064 0.246912,0.370369c0.047244,0.114058 0.076212,0.25631 0.123456,0.370367c0.066813,0.161304 0.144826,0.352188 0.246912,0.493826c0.161412,0.223949 0.306944,0.59552 0.370369,0.864191c0.028364,0.120153 0.123455,0.370369 0.246912,0.493826c0.123456,0.123455 0.123456,0.370367 0.246912,0.493824c0,0 0.180099,0.085608 0.246912,0.246912c0.047244,0.114058 0.123456,0.246912 0.246912,0.370367c0.123457,0.123457 0.246913,0.246914 0.493825,0.370369c0.246912,0.123457 0.393332,0.208956 0.617281,0.370369c0.141636,0.102085 0.393332,0.208956 0.617279,0.370367c0.141638,0.102087 0.335075,0.396502 0.617281,0.740738c0.332071,0.40506 0.475643,0.638649 0.617281,0.740736c0.223948,0.161411 0.24691,0.246912 0.370367,0.370369c0.123457,0.123457 0.332413,0.269875 0.493826,0.493824c0.102087,0.141638 0.246912,0.246912 0.246912,0.246912c0.123455,0.123455 0.123455,0.24691 0.123455,0.123455c0,-0.123455 -0.047541,-0.539751 -0.370367,-0.987648c-0.306259,-0.424913 -0.493826,-0.740736 -0.617281,-0.987648c-0.123457,-0.246912 -0.246912,-0.493824 -0.370369,-0.617281c-0.123457,-0.123457 -0.085609,-0.180099 -0.246912,-0.246912c-0.114058,-0.047243 -0.268282,-0.105274 -0.370369,-0.246912c-0.161413,-0.223948 -0.209064,-0.427011 -0.370367,-0.493824c-0.114059,-0.047245 -0.283072,-0.03616 -0.370369,-0.123457c-0.087297,-0.087297 -0.26828,-0.228731 -0.370367,-0.370369c-0.161413,-0.223949 -0.47215,-0.382452 -0.617281,-0.617279c-0.064905,-0.105019 -0.123456,-0.246912 -0.123456,-0.246912c0.123456,0 0.408732,0.189495 0.61728,0.370367c0.294931,0.255793 0.849566,0.39386 1.23456,0.617281c0.47753,0.277121 1.120945,0.351599 1.604931,0.617281c0.631039,0.346405 1.242132,0.595627 1.975296,0.864191c0.624268,0.228674 1.332954,0.648949 1.481474,0.740738c0.332094,0.205246 0.779009,0.288576 1.111105,0.493824c0.148516,0.091789 0.47883,0.184376 0.864193,0.246912c0.365585,0.059326 0.617279,0.123457 0.740736,0.123457l0.123455,0l0.123457,0" id="svg_3" fill-opacity="0" stroke-opacity="null" stroke-width="2" stroke="currentColor" fill="none"/>
  <path d="m11.407481,20.902023c0,-0.123455 0,-0.864193 0,-1.728384c0,-0.740738 0,-0.864193 0,-0.98765c0,0 -0.039551,-0.126644 0,-0.370367c0.062535,-0.385363 0.246912,-0.740738 0.246912,-0.864193c0,0 0,-0.123457 0,-0.123457c0,0 0.083905,-0.373556 0.123456,-0.617279c0.062535,-0.385362 0.303555,-0.702891 0.370368,-0.864194c0.094489,-0.228117 0,-0.246912 0,-0.246912c0,-0.123456 0,-0.246912 0,-0.246912c0,-0.246912 0.123456,-0.370368 0.123456,-0.61728c0,-0.123456 0,-0.246913 0,-0.246913c0,0 -0.056728,-0.130061 0,-0.370368c0.063425,-0.268671 0.123456,-0.61728 0.123456,-0.864192c0,0 0,-0.123457 0,-0.123457c0,0.123457 -0.123456,0.370369 -0.370368,0.740737c-0.246912,0.370368 -0.493824,0.740737 -0.61728,0.987649c-0.123456,0.246912 -0.246913,0.61728 -0.370369,0.864192c-0.123456,0.246912 -0.246912,0.493825 -0.246912,0.740737c0,0 0,0.123456 0,0.123456c0,0 0,0 0,0.123457c0,0 0,0 0,0c0,0.123455 -0.040985,0.275229 -0.246912,0.740736c-0.180078,0.407074 -0.246912,0.740736 -0.370368,0.864193c0,0 0,0.123455 0,0.123455c0,-0.123455 0,-0.123455 0,-0.246912c0,0 0.066728,-0.253517 0.123456,-0.493824c0.253698,-1.074684 0.769524,-1.843569 1.111105,-3.086402c0.269795,-0.981645 0.370368,-1.111105 0.493824,-1.358017c0,0 0,0 0,-0.123457c0,0 0.056643,0.037847 0.123456,-0.123456c0.047245,-0.114058 0.123456,-0.123456 0.123456,-0.246912c0,0 0.123456,-0.123456 0.246912,-0.246912c0.123456,-0.123456 0.283072,-0.283072 0.370369,-0.370368c0.087296,-0.087296 0,-0.123456 0,-0.123456c0.123456,-0.123456 0.306943,-0.225154 0.370368,-0.493825c0.028364,-0.120153 0.123456,-0.246912 0.246912,-0.246912c0,0 -0.087296,-0.159616 0,-0.246912c0.087296,-0.087296 0.208955,-0.269876 0.370368,-0.493824c0.102086,-0.141638 0.123456,-0.246913 0.123456,-0.246913c0,0 0.123457,-0.123456 0.246913,-0.246912c0.123456,-0.123456 0.246912,-0.370368 0.493824,-0.61728c0.123456,-0.123456 0.246912,-0.246912 0.246912,-0.246912c0.123456,-0.246913 0.159616,-0.283072 0.246912,-0.370369c0.087296,-0.087296 0.123456,0 0.123456,0c0.123457,-0.123456 0.246913,-0.246912 0.370369,-0.370368c0.123456,-0.123456 0.246912,-0.246912 0.246912,-0.246912c0.123456,0 0.228731,-0.021369 0.370369,-0.123456c0.223949,-0.161413 0.472065,-0.306944 0.740736,-0.370368c0.120153,-0.028364 0.33252,-0.180098 0.493824,-0.246912c0.114059,-0.047245 0.225153,-0.183488 0.493824,-0.246912c0.120153,-0.028365 0.246912,0 0.246912,0c0,0 0.064905,0.018438 0,0.123456c-0.145132,0.234828 -0.370367,0.246912 -0.493824,0.370368c-0.246912,0.246912 -0.54944,0.54944 -0.864193,0.864192c-0.314753,0.314752 -0.640244,0.70278 -0.864192,0.864193c-0.141638,0.102086 -0.123456,0.246912 -0.123456,0.246912c0,0 0,0.123456 -0.123456,0.123456c0,0 -0.270404,0.108829 -0.493825,0.493824c-0.13856,0.238765 -0.370368,0.370369 -0.370368,0.370369c-0.123456,0.246912 -0.123456,0.370368 -0.370368,0.740736c-0.246912,0.370368 -0.455868,0.887156 -0.617281,1.111105c-0.204173,0.283275 -0.323124,0.503222 -0.370368,0.61728c-0.066813,0.161304 -0.208955,0.516788 -0.370368,0.740737c-0.102086,0.141638 -0.123456,0.246912 -0.246912,0.493824c-0.123456,0.246913 -0.152423,0.389164 -0.246912,0.617281c-0.066814,0.161304 -0.183488,0.225153 -0.246913,0.493824c-0.056728,0.240307 -0.061262,0.358984 -0.123456,0.864193c-0.045253,0.367594 -0.123456,0.740736 -0.123456,1.111105c0,0.123455 0,0.370367 0,0.370367c0,0 0.029348,-0.114933 0.123456,-0.493824c0.181019,-0.728809 0.594606,-1.613731 0.987649,-2.592577c0.350343,-0.872503 0.61728,-1.358017 0.740737,-1.60493c0.123456,-0.246912 0.268282,-0.475642 0.370368,-0.61728c0.161413,-0.223948 0.123456,-0.370368 0.123456,-0.370368c0.123456,-0.123456 0.246912,-0.370369 0.370368,-0.617281c0.123456,-0.246912 0.208955,-0.393332 0.370368,-0.61728c0.102087,-0.141638 0.270404,-0.355742 0.493825,-0.740737c0.27712,-0.477528 0.61728,-1.358017 0.864192,-1.604929c0.123457,-0.123456 0.123457,-0.246912 0.246912,-0.370368c0,0 0.123457,-0.123456 0.123457,-0.123456c0,0 0.018438,-0.058552 0.123455,-0.123456c0.234827,-0.145131 0.348694,-0.258996 0.493826,-0.493824c0.064905,-0.105018 0.123455,-0.123456 0.123455,-0.123456c0,0 0.009398,0.047245 0.123457,0c0.161303,-0.066814 0.33252,-0.303554 0.493824,-0.370368c0.114058,-0.047244 0.246912,0 0.246912,0c0,-0.123456 0.123457,-0.123456 0.123457,-0.123456c0.123455,-0.123456 0.358803,-0.259678 0.493824,-0.370368c0.344234,-0.282205 0.640244,-0.332411 0.864191,-0.493824c0.141638,-0.102087 0.246914,-0.246912 0.246914,-0.246912c0.123455,0 0.246912,-0.123456 0.246912,-0.123456c0.123455,0 0.123455,0 0.123455,0c0.123457,0 0.246912,0 0.370369,0c0.123455,0 0.370367,0 0.740736,0c0.246912,0 0.493824,0 0.617281,0c0.123455,0 0.123455,0 0.246912,0c0,0 0,0 0,0.123456c0,0 0,0 0,0.123456c0,0 -0.085609,0.056642 -0.246912,0.123456c-0.114059,0.047245 -0.225153,0.183487 -0.493824,0.246912c-0.240307,0.056729 -0.51679,0.208954 -0.740738,0.370368c-0.141636,0.102087 -0.246912,0.123456 -0.246912,0.123456c-0.123455,0 -0.05855,0.018438 -0.123455,0.123456c-0.145132,0.234827 -0.485693,0.14127 -0.740738,0.246912c-0.360683,0.1494 -0.579432,0.303555 -0.740736,0.370368c-0.114058,0.047244 -0.123455,0.123456 -0.123455,0.123456c0,0 0.036158,-0.03616 0.123455,-0.123456c0.087297,-0.087297 0.076212,-0.132854 0.123457,-0.246912c0.066813,-0.161303 0.123455,-0.370368 0.123455,-0.493824c0,-0.123456 0,-0.123456 0,-0.123456c0.123457,0 0.132854,-0.076212 0.246912,-0.123456c0.161304,-0.066814 0.225153,-0.306943 0.493826,-0.370368c0.120153,-0.028364 0.498606,-0.06413 0.864191,-0.123456c0.385363,-0.062536 0.636076,-0.028968 0.864193,-0.123456c0.161304,-0.066814 0.370369,-0.123456 0.493824,-0.123456c0.123457,0 0.246912,0 0.370369,0c0.123457,0 0.246912,0 0.246912,0c0.123457,0 0.085609,-0.056642 0.246912,-0.123456c0.114059,-0.047245 0.370369,0 0.493824,0c0.246912,0 0.370369,-0.123456 0.617281,-0.123456c0.246912,0 0.493824,0 0.617281,0c0.370367,0 0.617281,0 0.864193,0c0.246912,0 0.493824,0 0.617279,0c0.246912,0 0.373672,-0.028365 0.493826,0c0.268671,0.063425 0.373671,0.095091 0.493824,0.123456c0.268671,0.063425 0.246912,0.123456 0.370367,0.123456c0.123457,0 0.246912,0.123456 0.370369,0.123456c0,0 0.123457,0.123456 0.123457,0.123456c0.123455,0 0.246912,0.123456 0.246912,0.123456c0.123455,0 0.283072,0.03616 0.370367,0.123456c0.087297,0.087296 0.123457,0.123456 0.246912,0.246912c0.123457,0.123456 0.101698,0.183487 0.370369,0.246912c0.120153,0.028364 0.123455,0.123456 0.246912,0.246912c0.123457,0.123456 0.123457,0.246912 0.246912,0.246912c0,0 -0.123455,0 -0.246912,0c-0.123457,0 -0.503061,-0.06415 -1.481472,-0.246912c-0.50037,-0.093466 -1.02524,0.065521 -1.481474,-0.123456c-0.161304,-0.066814 -0.389164,-0.028966 -0.617281,-0.123456c-0.161303,-0.066814 -0.246912,-0.123456 -0.370367,-0.123456c-0.123457,0 -0.246912,-0.123456 -0.370369,-0.123456c-0.246912,0 -0.370369,0 -0.493824,0c0,0 0,0 -0.123457,0c-0.123455,0 -0.472065,-0.060031 -0.740736,-0.123456c-0.240307,-0.056729 -0.493824,0 -0.617281,0c0,0 -0.123455,0 0,0c0,0 0.123457,0 0.370369,0c0.493824,0 1.231997,0.258745 2.345665,0.493824c0.615932,0.130015 1.096128,-0.014977 1.358017,0.246912c0.087297,0.087296 0.146421,0.085498 0.370369,0.246912c0.141636,0.102087 0.285276,0.312952 0.493824,0.493824c0.294931,0.255793 0.545536,0.42208 0.740736,0.61728c0.1952,0.195201 0.370369,0.246912 0.493824,0.370368c0.123457,0.123457 0.246914,0.246913 0.370369,0.370369c0.123457,0.123457 0.246912,0.123456 0.370369,0.246912c0,0 0.009398,0.076212 0.123455,0.123456c0.161304,0.066813 0.135542,0.225237 0.370369,0.370368c0.210035,0.129809 0.283072,0.159616 0.370369,0.246912c0.087296,0.087296 0.246912,0.123456 0.370367,0.246913c0,0 0.123457,0 0,0c-0.123455,0 -0.266577,-0.075389 -0.617281,-0.246913c-0.399864,-0.195567 -1.023342,-0.376378 -1.604929,-0.61728c-0.411243,-0.170342 -0.864191,-0.370368 -1.23456,-0.493824c-0.370369,-0.123457 -0.472065,-0.306944 -0.740736,-0.370369c-0.120153,-0.028364 -0.123457,0 -0.246912,-0.123456c0,0 0,0 0,0c-0.123457,-0.123456 -0.408733,-0.436408 -0.617281,-0.61728c-0.294931,-0.255793 -0.529984,-0.159615 -0.617281,-0.246912c-0.087297,-0.087296 0,-0.123456 0,-0.123456c0,0 0.130062,-0.056729 0.370369,0c0.268671,0.063425 0.869295,0.351508 1.358017,0.493824c0.374832,0.109152 0.868975,0.187586 1.23456,0.246912c0.385363,0.062535 0.745518,0.187586 1.111105,0.246912c0.385363,0.062535 0.725742,0.184377 1.111105,0.246912c0.365587,0.059326 0.740736,0 0.864191,0c0,0 0,0 0,0c0,-0.123456 -0.159615,-0.159616 -0.24691,-0.246912c-0.087297,-0.087296 -0.269875,-0.0855 -0.493824,-0.246912c-0.141638,-0.102087 -0.209066,-0.303554 -0.370369,-0.370368c-0.114059,-0.047245 -0.123457,0 -0.123457,0c-0.123455,0 -0.123455,0 -0.123455,0c-0.123457,-0.123456 -0.085609,-0.180098 -0.246912,-0.246912c-0.114059,-0.047245 -0.123457,0 -0.246912,-0.123456c0,0 0,0.123456 0,0.123456c0.123455,0 0.123455,0.123456 0.246912,0.246912c0.123455,0.123456 0.272444,0.34724 0.493824,0.61728c0.282206,0.344235 0.493824,0.617281 0.740736,0.864193c0.123457,0.123456 0.246912,0.370368 0.370367,0.493824c0.246914,0.246913 0.332413,0.393332 0.493828,0.617281c0.102085,0.141637 0.24691,0.246913 0.370365,0.370368c0.123459,0.123457 0.246914,0.246912 0.370369,0.370368c0.123455,0.123456 0.07621,0.25631 0.123455,0.370368c0.066814,0.161304 0.123459,0.246913 0.246914,0.246913c0,0 0,0.123456 0,0.123456c0.123455,0 0.123455,0 0.123455,0c0,0 -0.03616,-0.03616 -0.123455,-0.123456c-0.087296,-0.087297 -0.159615,-0.036159 -0.246914,-0.123457c-0.087296,-0.087296 -0.225235,-0.135542 -0.370365,-0.370368c-0.064903,-0.105018 -0.123459,-0.123456 -0.123459,0c0,0 0.056644,0.085608 0.123459,0.246912c0.047245,0.114058 -0.025944,0.256597 0.123455,0.617281c0.211281,0.510085 0.369164,1.085211 0.493824,1.975297c0.102741,0.733577 0,1.234561 0,1.481473c0,0.123456 0,0.123456 0,0.246912c0,0 0.123455,0 0.123455,0.246913c0,0.246912 0,0.370368 0,0.61728c0,0 0,0 0,0c0,-0.123455 0.056728,-0.376973 0,-0.61728c-0.063423,-0.268672 -0.123455,-0.493825 -0.123455,-0.864193c0,-0.61728 0,-1.234561 0,-1.851841c0,-0.493825 0,-0.864193 0,-1.234561c0,0 0,-0.123456 0,-0.123456c0,0 0,0 0,0c0,0 0.07621,0.009398 0.123455,0.123456c0.066814,0.161304 0.231808,0.378517 0.370369,0.61728c0.223423,0.384996 0.455864,0.516789 0.617279,0.740737c0.102089,0.141639 0.123459,0.246912 0.123459,0.246912c0,0 0.03616,0.03616 0.123455,0.123456c0.087296,0.087296 0.056641,0.209065 0.123455,0.370368c0.047245,0.114058 -0.087296,0.406528 0,0.493825c0.087299,0.087298 0.123459,0.123456 0.123459,0.246912c0,0.246912 0,0.370368 0,0.493824c0,0.246912 0,0.370368 0,0.493825c0,0.246912 0,0.493824 0,0.617281c0,0.123455 0.123455,0.246912 0.123455,0.370367c0,0 0,0.123457 0,0.246912c0,0.246912 0,0.617281 0,0.864193c0,0.370369 0,0.493824 0,0.740736c0,0.246912 -0.064129,0.375151 -0.123455,0.740738c-0.062538,0.385361 -0.165123,0.655552 -0.370369,0.987648c-0.091789,0.14852 -0.123459,0.246912 -0.246914,0.246912c0,0 0,0 0,0c0,-0.246912 -0.123455,-0.493824 -0.123455,-0.740736c0,-0.246912 -0.123455,-0.493824 -0.123455,-0.740736c0,-0.246914 0.085094,-0.62719 0,-0.98765c-0.063427,-0.268673 -0.180099,-0.455978 -0.246914,-0.617281c-0.09449,-0.228117 -0.123455,-0.493824 -0.123455,-0.617279c0,-0.123457 0,-0.370369 -0.123455,-0.617281c0,0 0,-0.123456 0,-0.123456c-0.123459,0 -0.123459,0 -0.123459,0.123456c0,0 0,0.123457 0,0.246912c0,0.123457 0,0.246912 0,0.370369c0,0.246912 0,0.493824 0,0.740736c0,0.123457 0,0.370369 0,0.370369l0,0.123455" id="svg_4" fill-opacity="0" stroke-opacity="null" stroke-width="2" stroke="currentColor" fill="none"/>
  <path d="m33.629578,19.544006c0,0 0,0 0,0.123457c0,0.246912 0,0.493824 0,0.493824c0,0.123457 0.06126,-0.112072 0.123455,-0.617281c0.090504,-0.735186 0.123455,-1.358017 0.123455,-1.851841c0,-0.493824 0,-0.864193 0.123459,-1.358017c0.123455,-0.493824 0.30817,-1.223177 0.370365,-1.728385c0.060337,-0.490124 0,-0.740737 0,-0.864193c0,-0.246912 0,-0.370368 0,-0.864192c0,-0.246913 0,-0.617281 0,-0.987649c0,-0.246912 0,-0.370368 0,-0.617281c0,-0.123456 0,-0.246912 0,-0.493824c0,0 0,-0.123456 0,-0.246912c0,-0.246912 0,-0.493824 0,-0.740737c0,-0.123456 -0.123455,-0.246912 -0.123455,-0.370368c0,0 -0.123455,0 -0.123455,-0.123456c0,0 -0.123455,0 -0.246914,0c0,0 0,0 -0.123455,0c0,0 -0.123455,0 -0.123455,0c0,0 0,0 -0.123459,0c0,0 0,0 -0.123455,0c0,0 0,0 0,0c-0.123455,0 -0.123455,0 -0.123455,0c-0.123455,0 -0.246914,-0.123456 -0.246914,-0.123456c0,0 -0.123455,0 -0.123455,0c0,-0.123456 0,-0.123456 0,-0.123456c0,0 0,0 0,0l0,0" id="svg_5" fill-opacity="0" stroke-opacity="null" stroke-width="2" stroke="currentColor" fill="none"/>
  <path d="m32.271561,25.099531c0,-0.123457 0,-0.246912 0,-0.493824c0,-0.370369 0,-0.493826 0,-0.493826c0,-0.123455 0,-0.123455 0,-0.246912c0,-0.246912 0.198845,-0.636942 0.370369,-0.987648c0.195568,-0.399864 0.54517,-0.711241 0.740734,-1.111105c0.171524,-0.350706 0.549438,-0.672895 0.864193,-0.987648c0.314754,-0.314753 0.516788,-0.455866 0.740738,-0.617281c0.141636,-0.102087 0.24691,-0.246912 0.493824,-0.246912c0.123455,0 0.123455,0 0.24691,0c0,0 0,0 0,0.246912c0,0.123457 0.028362,0.373671 0,0.493824c-0.063423,0.268671 -0.199665,0.379766 -0.24691,0.493824c-0.066814,0.161303 -0.199669,0.25631 -0.246914,0.370369c-0.066814,0.161303 -0.159615,0.159616 -0.24691,0.246912c-0.087296,0.087297 0.087296,0.159616 0,0.246912c-0.087299,0.087299 -0.123459,0.123457 -0.123459,0.123457c0,0 0,0.123455 0,0.123455c-0.123455,0 -0.123455,0.123457 -0.123455,0.123457c0,0.123455 -0.123455,0.246912 -0.123455,0.246912c-0.123455,0.123455 -0.152424,0.389162 -0.246914,0.617281c-0.066814,0.161303 -0.199665,0.379765 -0.24691,0.493824c-0.066814,0.161303 -0.303555,0.332521 -0.370369,0.493824c-0.09449,0.228117 -0.07621,0.379766 -0.123455,0.493824c-0.066814,0.161304 -0.159618,0.159616 -0.246914,0.246912c-0.087296,0.087297 0,0.246912 0,0.246912c-0.123455,0.123457 -0.123455,0.246912 -0.123455,0.246912c-0.123455,0.123457 -0.123455,0.246912 -0.123455,0.246912c0,0.123457 -0.076214,0.132854 -0.123459,0.246914c-0.066814,0.161303 -0.180096,0.209064 -0.24691,0.370367c-0.047245,0.114059 -0.123455,0.246912 -0.123455,0.246912c-0.123459,0 -0.123459,0 -0.123459,0c0,0 0,-0.370367 0,-0.864193c0,-0.493824 0,-1.23456 0,-1.851841c0,-0.493824 -0.047245,-0.750134 0,-0.864193c0.066814,-0.161304 0.123459,-0.123455 0.123459,-0.246912c0,0 0.123455,-0.123455 0.123455,-0.370367c0,-0.123457 0.183487,-0.34861 0.24691,-0.617281c0.028362,-0.120153 0.087296,-0.159615 0,-0.246912c-0.087296,-0.087296 -0.228046,0.252014 -0.370365,0.740736c-0.109154,0.374834 -0.285275,0.750645 -0.370369,1.111105c-0.063427,0.268673 -0.303556,0.455978 -0.370369,0.617281c-0.094488,0.228117 -0.148989,0.470695 -0.370369,0.740736c-0.282206,0.344236 -0.601456,0.875246 -0.864193,1.234562c-0.466597,0.638109 -0.704374,1.030386 -0.987648,1.23456c-0.223948,0.161413 -0.370369,0.370369 -0.617281,0.493824c-0.246912,0.123457 -0.485693,0.264727 -0.740736,0.370369c-0.360685,0.149401 -0.711241,0.298256 -1.111105,0.493824c-0.350706,0.171524 -0.864193,0.493824 -1.111105,0.617281c-0.246912,0.123455 -0.33252,0.42701 -0.493824,0.493824c-0.114059,0.047245 -0.246912,0 -0.246912,0.123455c0,0.123455 0.360283,-0.013844 0.864193,-0.370367c0.726749,-0.514185 1.500839,-0.812304 2.22221,-1.111105c0.510084,-0.211285 0.9498,-0.550467 1.111103,-0.617281c0.228117,-0.09449 0.437181,0.037848 0.370369,-0.123455c-0.047245,-0.114059 -0.633701,0.070309 -1.111105,0.246912c-0.517817,0.191553 -0.976263,0.431629 -1.481472,0.493824c-0.367594,0.045254 -0.736273,0.014303 -1.111105,0.123455c-0.488722,0.142317 -0.972347,0.165821 -1.604929,0.370369c-0.484333,0.156612 -0.740738,0.246912 -0.740738,0.246912c-0.123455,0.123457 -0.246912,0.123457 -0.246912,0.123457c-0.123455,0.123455 -0.132853,0.199667 -0.246912,0.246912c-0.161303,0.066813 -0.123455,0.123455 -0.123455,0.123455c-0.123457,0.123457 -0.25631,0.199667 -0.370369,0.246912c-0.161304,0.066814 -0.376974,0.190186 -0.617281,0.246914c-0.268671,0.063425 -0.493824,0.123455 -0.740736,0.123455c-0.123457,0 -0.246912,0 -0.370369,0c0,0 -0.123455,0 -0.370367,0c-0.123457,0 -0.246912,0 -0.617281,0c-0.123457,0 -0.493824,-0.123455 -0.740736,-0.123455c-0.246912,0 -0.512619,-0.028967 -0.740736,-0.123457c-0.161304,-0.066814 -0.246914,-0.123457 -0.493826,-0.123457c-0.246912,0 -0.617279,-0.123455 -0.740736,-0.123455c-0.123457,0 -0.370369,0 -0.493824,0c-0.123457,0 -0.246912,0 -0.246912,0c0,0 0,0 -0.123457,0c0,0 0,0 0,0c-0.123455,0 -0.123455,0 -0.123455,0c-0.123457,0 -0.123457,0 -0.123457,0c0,0 -0.123455,0 -0.123455,0c0,0 -0.123457,0 -0.123457,0c0,0 0,-0.123457 -0.123456,-0.123457c0,0 0,0 0,0c-0.123456,0 -0.123456,0 -0.123456,-0.123455c0,0 -0.123456,0 -0.123456,0c0,0 -0.03616,0.087297 -0.123456,0c-0.087297,-0.087297 -0.097512,-0.380053 -0.246912,-0.740736c-0.105643,-0.255045 -0.180099,-0.332521 -0.246913,-0.493826c-0.094489,-0.228117 0,-0.246912 0,-0.370367c0,0 -0.123456,-0.123457 -0.123456,-0.246912c0,-0.123457 -0.183487,-0.225153 -0.246912,-0.493826c-0.028364,-0.120153 -0.108353,-0.378515 -0.246912,-0.617279c-0.223421,-0.384996 -0.322299,-0.636946 -0.493824,-0.98765c-0.195567,-0.399864 -0.423811,-0.716345 -0.740737,-1.481472c-0.149401,-0.360685 -0.33241,-0.7637 -0.493824,-0.98765c-0.102086,-0.141636 -0.123456,-0.246912 -0.123456,-0.370367c0,-0.123457 0,-0.123457 -0.123457,-0.246912c0,0 0,-0.123457 0,-0.123457c-0.123456,-0.246912 -0.180098,-0.209064 -0.246912,-0.370367c-0.047245,-0.114059 -0.123456,-0.246912 -0.123456,-0.370369c0,-0.123457 -0.076211,-0.25631 -0.123456,-0.370369c-0.066814,-0.161303 -0.036159,-0.159615 -0.123456,-0.246912c-0.087296,-0.087297 -0.036159,-0.159615 -0.123456,-0.246912c-0.087296,-0.087297 -0.159616,-0.036158 -0.246912,-0.123455c-0.087297,-0.087297 -0.03616,-0.159616 -0.123456,-0.246912c-0.087296,-0.087297 -0.123456,0 -0.123456,0c0,0 0,-0.123457 0,0c0,0 0,0 0,0c0,0.123455 0,0.246912 0,0.370367c0,0.246912 0,0.370369 0,0.493824c0,0.123457 0,0.246912 0,0.370369c0,0 0,0.123457 0,0.123457c0,0 0,0 0.123456,0l0,0l0,0l0,0" id="svg_6" fill-opacity="0" stroke-opacity="null" stroke-width="2" stroke="currentColor" fill="none"/>
  <path d="m20.543232,35.716755c0,0 0,0 0,0c0,-0.123455 -0.246912,-0.370369 -0.370369,-0.493824c-0.123459,-0.123459 -0.246912,-0.123459 -0.246912,-0.123459c0,-0.123455 -0.159616,-0.159615 -0.246912,-0.24691c-0.087296,-0.087296 -0.123457,-0.246914 -0.123457,-0.246914c-0.123455,-0.123455 -0.268282,-0.228729 -0.370367,-0.370365c-0.161413,-0.223949 -0.370367,-0.370369 -0.493824,-0.617283c-0.123455,-0.24691 -0.303556,-0.455978 -0.370369,-0.617279c-0.047245,-0.114059 -0.246912,-0.370369 -0.246912,-0.493824c0,-0.123459 -0.123457,-0.246914 -0.246912,-0.370369c0,0 -0.180099,-0.085609 -0.246912,-0.246912c-0.047245,-0.114059 -0.076212,-0.132854 -0.123457,-0.246912c-0.066814,-0.161304 -0.246912,-0.246912 -0.370369,-0.370369c-0.123455,-0.123457 -0.159615,-0.159615 -0.246912,-0.246912c-0.087297,-0.087297 -0.123455,-0.246912 -0.123455,-0.246912c-0.123457,-0.123457 -0.123457,-0.246912 -0.123457,-0.246912c-0.123455,-0.123457 -0.03616,-0.159616 -0.123455,-0.246912c-0.087297,-0.087297 -0.123457,0 -0.123457,0.123455c0,0 0,0.123457 0,0.246912c0,0.123457 0.056643,0.209064 0.123457,0.370369c0.047245,0.114058 0.159615,0.159615 0.246912,0.246912c0.087297,0.087297 0.123455,0.246912 0.123455,0.246912c0,0.123457 0.03616,0.03616 0.123457,0.123457c0.087296,0.087296 0,0.123455 0,0.123455c0,0 0.03616,0.036161 0.123455,0.123457c0.087297,0.087297 -0.047245,0.132856 0,0.246912c0.066814,0.161304 0.036161,0.159615 0.123457,0.24691c0.087296,0.087296 0.07621,0.132858 0.123455,0.246914c0.066814,0.161304 0.123457,0.123455 0.246914,0.370369c0,0 0.056643,0.085609 0.123455,0.24691c0.047245,0.114059 0.123457,0.246914 0.123457,0.246914c0.123455,0.24691 0.076208,0.25631 0.123455,0.370369c0.066814,0.161304 0.208956,0.269875 0.370369,0.493824c0.102085,0.141636 0.152422,0.265705 0.246912,0.493824c0.066814,0.161304 0.199665,0.25631 0.246912,0.370369c0.066814,0.161304 0.303555,0.209064 0.370369,0.370369c0.047243,0.114059 0.076208,0.379765 0.123455,0.493824c0.066814,0.161304 0.208956,0.269875 0.370369,0.493824c0.102085,0.141636 0.123457,0.370369 0.246912,0.617279c0.123457,0.246914 0.306944,0.34861 0.370369,0.617279c0.028366,0.120155 0.123455,0.246914 0.246912,0.493828c0.123455,0.24691 0.199667,0.379765 0.246912,0.493824c0.066813,0.161301 0.180098,0.209061 0.246912,0.370365c0.047247,0.114059 0.076212,0.25631 0.123455,0.370369c0.066814,0.161304 0.159616,0.283073 0.246912,0.370369c0.087297,0.087296 0.036158,0.159615 0.123457,0.246914c0.087297,0.087296 0.159616,0.03616 0.246912,0.123455c0.087296,0.087296 0,0.123455 0.123457,0.24691c0,0 0.123455,0.123459 0.123455,0.123459c0.123457,0.123455 0.246912,0.24691 0.246912,0.24691c0,0.123459 0.076212,0.132854 0.123457,0.246914c0.066813,0.161301 0.180098,0.085606 0.246912,0.24691c0.047247,0.114059 0.123455,0.123459 0.123455,0.246914c0,0.123455 0.123457,0.24691 0.123457,0.24691c0.123457,0.123459 0.123457,0.123459 0.246912,0.246914c0,0 0,0.123455 0,0.123455c0,0.123455 0,0.123455 0.123457,0.123455c0,0 0,0 0,0.123459c0,0 0.123455,0 0.123455,0c0,0 0,0 0.123457,0c0,0 0.060921,-0.231922 0.123455,-0.617283c0.059326,-0.365582 0,-0.493824 0,-0.740734c0,-0.246914 0,-0.370369 0,-0.370369c0,-0.246914 0,-0.246914 0,-0.370369c0,-0.123455 0.056643,-0.085606 0.123457,-0.24691c0.047247,-0.114059 0.123455,-0.370369 0.123455,-0.370369c0.123457,-0.123455 0.199667,-0.256313 0.246912,-0.370369c0.066814,-0.161304 0.199669,-0.25631 0.246914,-0.370369c0.066813,-0.161301 0.24691,-0.24691 0.370367,-0.370369c0.24691,-0.246914 0.175165,-0.422077 0.370369,-0.617279c0.195202,-0.195202 0.370367,-0.246914 0.493824,-0.493824c0.123457,-0.246914 0.270401,-0.355743 0.493824,-0.740738c0.138559,-0.238762 0.246912,-0.493824 0.493824,-0.864193c0.246912,-0.370365 0.437544,-0.901684 1.111105,-1.851841c0.457165,-0.644901 0.849613,-1.367001 1.234562,-1.975296c0.476063,-0.752274 0.864191,-1.234562 1.111105,-1.728386c0.246912,-0.493824 0.505526,-0.946903 0.987648,-1.481472c0.413418,-0.458391 1.080894,-1.127401 1.358017,-1.604929c0.223423,-0.384996 0.493824,-0.617281 0.617279,-0.740738c0,0 0.159618,-0.159616 0.246914,-0.246912c0.087296,-0.087296 0.123455,-0.246912 0.123455,-0.246912c0,-0.123455 0,-0.123455 0,-0.123455c-0.123455,0 -0.496597,-0.045252 -0.864193,0c-0.505207,0.062193 -0.958151,0.298258 -1.358017,0.493824c-0.350704,0.171522 -0.516788,0.208954 -0.740736,0.370367c-0.141638,0.102087 -0.246912,0.246912 -0.493824,0.370369c-0.246912,0.123457 -0.398561,0.105179 -0.740736,0.246912c-0.322605,0.133627 -0.513487,0.445757 -0.864193,0.617281c-0.399864,0.195568 -0.73065,0.631124 -1.23456,0.987648c-0.363375,0.257093 -0.779011,0.412035 -1.111105,0.617281c-0.297035,0.183578 -0.640245,0.332413 -0.864193,0.493824c-0.141638,0.102087 -0.373672,0.218548 -0.493824,0.246912c-0.268671,0.063425 -0.375151,0.064131 -0.740738,0.123457c-0.385361,0.062534 -0.620054,0.20166 -0.987648,0.246912c-0.505209,0.062193 -0.987648,0.246912 -1.23456,0.246912c-0.370369,0 -0.493826,0 -0.740738,0c-0.123455,0 -0.25631,-0.047243 -0.370367,0c-0.161303,0.066813 -0.246912,0.123455 -0.370369,0.123455c-0.123457,0 -0.159615,0.03616 -0.246912,0.123457c-0.174593,0.174593 -0.497126,0.095093 -0.617281,0.123457c-0.268671,0.063425 -0.617279,0.123457 -0.617279,0.246912c0,0.123455 0.246912,0 0.740736,0c0.617279,0 1.365524,0.044357 2.22221,-0.123457c0.499529,-0.097851 0.987648,-0.123455 1.481472,-0.246912c0.493824,-0.123457 0.864193,-0.246912 1.111105,-0.370369c0.246912,-0.123455 0.332521,-0.180098 0.493824,-0.246912c0.114059,-0.047245 0.246912,-0.123455 0.617281,-0.246912c0.370369,-0.123455 0.587784,-0.298256 0.987648,-0.493824c0.350704,-0.171524 0.655554,-0.288578 0.98765,-0.493824c0.297035,-0.183578 0.475643,-0.391739 0.617279,-0.493824c0.223948,-0.161413 0.510246,-0.317223 0.98765,-0.493826c0.258909,-0.095776 0.493824,-0.246912 0.617279,-0.246912c0.123457,0 0.246912,0 0.246912,0c0,0 0,0.246912 0,0.370369c0,0.123457 -0.07621,0.25631 -0.123455,0.370369c-0.066814,0.161303 -0.152422,0.265707 -0.246912,0.493824c-0.066814,0.161303 -0.135542,0.348694 -0.370369,0.493824c-0.105017,0.064903 -0.269876,0.085499 -0.493824,0.246912c-0.141638,0.102087 -0.370369,0.123457 -0.493824,0.123457c-0.123457,0 -0.250216,0.095091 -0.370369,0.123455c-0.268671,0.063425 -0.443701,0.310246 -0.740736,0.493824c-0.332096,0.205248 -0.726109,0.39386 -1.111105,0.617281c-0.477528,0.277119 -0.972654,0.43129 -1.358017,0.493826c-0.60931,0.098877 -0.864193,0 -1.111105,0c-0.246912,0 -0.493824,0 -0.740736,0c-0.246912,0 -0.370369,0 -0.493824,0c-0.246912,0 -0.493824,0 -0.740738,0c-0.370367,0 -0.493824,0 -0.740736,0c-0.246912,0 -0.370367,0 -0.617281,0c-0.123455,0 -0.123455,0 -0.123455,0c-0.123457,0.123455 -0.123457,0.24691 -0.123457,0.370365c0,0 0,0.246914 0,0.370369c0,0.123459 0,0.123459 0,0.246914c0,0.123455 0,0.123455 0,0.123455c0,0.123455 0.123457,0.123455 0.123457,0.246914c0,0 0,0.123455 0,0.123455c0.123455,0.123455 0.123455,0.123455 0.123455,0.123455c0.123457,0 0.123457,0 0.246914,0.123455c0,0 0.246912,0.123459 0.370367,0.123459c0.123457,0 0.408642,0.041664 0.740736,0.24691c0.14852,0.091789 0.370369,0.246914 0.493826,0.370369c0.123455,0.123455 0.159615,0.03616 0.246912,0.123455c0.087299,0.087299 0.020365,-0.000843 0,-0.24691c-0.061939,-0.748398 -0.318481,-1.624298 -0.617281,-2.345665c-0.211285,-0.510086 -0.246912,-0.740738 -0.246912,-0.864195c0,0 -0.047245,0.132854 0,0.246914c0.066813,0.161303 0.123455,0.493824 0.123455,0.617281c0,0.370365 0,0.493824 0,0.740734c0,0.123459 0,0.370369 0,0.370369c0,0.123455 0.159616,0.159618 0.246914,0.246914c0.087296,0.087296 0.123455,0.123455 0.246912,0.123455c0.370367,0 0.479197,-0.146946 0.864191,-0.370369c0.477528,-0.277119 1.17631,-0.615471 1.851843,-0.864193c0.704706,-0.259464 1.089346,-0.306942 1.358017,-0.370367c0.240307,-0.056728 0.493824,0 0.617279,0c0.123457,0 0.493826,0 0.864193,0c0.246912,0 0.617281,-0.123457 0.98765,-0.123457c0.123455,0 0.370367,0 0.493824,0c0,0 0.123455,0 0.123455,0c0,0.123457 0.106831,0.347092 -0.246912,0.617279c-0.310255,0.236973 -0.740736,0.370369 -1.111105,0.370369c-0.246912,0 -0.617279,0 -0.864193,0c-0.246912,0 -0.370367,0 -0.617279,0c-0.123457,0 -0.250216,-0.028366 -0.370369,0c-0.268673,0.063427 -0.352188,0.144829 -0.493824,0.246914c-0.223948,0.161411 -0.485693,0.264725 -0.740736,0.370369c-0.360685,0.149403 -0.859728,0.261211 -1.234562,0.370365c-0.488724,0.142319 -0.65344,0.159618 -0.740736,0.246914c-0.087296,0.087296 0,0.123455 0,0.246914c0,0 -0.123457,0 -0.123457,0.123455c0,0 -0.123455,0.123455 -0.123455,0.123455c-0.123457,0.123455 -0.195776,0.072319 -0.370369,0.246914c-0.087296,0.087296 -0.303555,0.209064 -0.370367,0.370365c-0.047245,0.114059 0,0.246914 -0.123457,0.246914c0,0 -0.123457,0.123455 -0.123457,0.123455c-0.123455,0 -0.036156,0.03616 -0.123455,0.123459c-0.087297,0.087296 -0.123457,0.123455 -0.123457,0.123455c0,0 0,0.123455 0,0.123455c0,0.123455 0,0.246914 0,0.246914c0,0.123455 0,0.123455 0,0.24691c0,0 0,0.123455 0,0.123455c0,0 0.123457,0.123459 0.123457,0.123459c0,0 0.03616,0.03616 0.123455,0.123455c0.087297,0.087296 0.076214,0.009396 0.123457,0.123455c0.066814,0.161304 0.123457,0.123459 0.246912,0.370369c0.123457,0.246914 0.144827,0.475643 0.246912,0.617279c0.161413,0.223949 0.076212,0.379768 0.123457,0.493828c0.066813,0.161301 0.03616,0.28307 0.123455,0.370365c0.087297,0.087296 -0.051134,0.195778 0.123457,0.370369c0.087296,0.087296 0.123455,0.123455 0.123455,0.123455c0,0 0,0 0.123457,0c0,0 0.058552,-0.265347 0.123455,-0.370365c0.145132,-0.234829 0.359543,-0.497608 0.493826,-0.864193c0.228674,-0.624268 0.342001,-0.990952 0.370367,-1.111107c0.063425,-0.268669 0.123457,-0.493824 0.246912,-0.617279c0.123457,-0.123455 0.23181,-0.378517 0.370369,-0.617279c0.223423,-0.384995 0.493824,-0.617283 0.740736,-0.987652c0.246912,-0.370365 0.493824,-0.617279 0.617281,-0.740734c0.123459,-0.123459 0.159616,-0.159618 0.246912,-0.246914c0.087297,-0.087296 0.209066,-0.056641 0.370369,-0.123455c0.114058,-0.047245 0.370367,0 0.493824,0c0.123455,0 0.246912,0 0.246912,0c0,0.123455 0,0.370369 0,0.493824c0,0.246914 -0.123457,0.493824 -0.246912,0.617279c-0.246912,0.246914 -0.393333,0.332413 -0.617281,0.493824c-0.283276,0.204174 -0.595606,0.258999 -0.740736,0.493828c-0.064903,0.105019 -0.132854,0.199665 -0.246912,0.24691c-0.161303,0.066814 -0.422079,0.175167 -0.617281,0.370369c-0.1952,0.195198 -0.303555,0.33252 -0.370369,0.493824c-0.047245,0.114056 -0.03616,0.159618 -0.123455,0.246914c-0.174591,0.174591 -0.056643,0.209061 -0.123457,0.370365c-0.047247,0.114059 -0.123455,0.123459 -0.123455,0.123459c-0.123457,0 -0.246914,-0.246914 -0.370369,-0.493824c-0.246914,-0.493828 -0.431288,-0.849201 -0.493824,-1.234562c-0.059326,-0.365585 -0.180099,-0.455978 -0.246912,-0.617283c-0.047243,-0.114059 0,-0.123455 0,-0.123455c0,-0.123455 0,0 0,0c0,0.123455 -0.008131,0.14127 0.246912,0.246914c0.360685,0.149403 0.617281,0.123455 0.864193,0.123455c0.246912,0 0.493824,0 0.617281,0c0.246912,0 0.493824,0 0.864191,0c0.493826,0 0.759533,0.09449 0.98765,0c0.161303,-0.066814 0.24691,-0.123455 0.370367,-0.246914c0.123455,-0.123455 0.268282,-0.228729 0.370369,-0.370365c0.161415,-0.223949 0.391739,-0.352188 0.493824,-0.493824c0.161413,-0.223949 0.370369,-0.493828 0.493824,-0.617283c0.123457,-0.123455 0.209066,-0.42701 0.370369,-0.493824c0.114059,-0.047245 0.085609,-0.180096 0.246912,-0.24691c0.114059,-0.047245 0.180099,0.037846 0.246912,-0.123459c0.047243,-0.114059 0.123457,-0.123455 0.246912,-0.24691c0.123457,-0.123459 0.141895,-0.182011 0.246912,-0.246914c0.234827,-0.14513 0.180099,-0.209064 0.246912,-0.370367c0.047245,-0.114059 0.180099,-0.209066 0.246912,-0.370369c0.047243,-0.114058 0.144827,-0.228731 0.246914,-0.370369c0.161411,-0.223948 0.199667,-0.379765 0.246912,-0.493824c0.066813,-0.161303 0.246912,-0.246912 0.370367,-0.370367c0,0 0.076214,-0.132854 0.123457,-0.246912c0.066813,-0.161303 0.159616,-0.283073 0.246912,-0.370369c0.087296,-0.087296 0.303555,-0.209064 0.370369,-0.370369c0.047245,-0.114058 0.141893,-0.182007 0.246912,-0.246912c0.234827,-0.145132 0.123455,-0.246912 0.246912,-0.370367c0,0 0.123455,-0.123457 0.123455,-0.123457c0,0 0,0.123457 0,0.123457c0,0.123455 0.028362,0.250214 0,0.370367c-0.063425,0.268671 -0.370367,0.493824 -0.493824,0.617281c-0.123455,0.123455 -0.246912,0.246912 -0.370369,0.370369c-0.123455,0.123455 -0.159615,0.159615 -0.246912,0.246912c-0.087296,0.087296 0,0.246912 0,0.246912c-0.123455,0.123455 -0.180098,0.085608 -0.246912,0.246912c-0.047245,0.114058 -0.031666,0.221851 -0.123455,0.370367c-0.205248,0.332096 -0.198845,0.760401 -0.370369,1.111105c-0.195568,0.399864 -0.43129,0.849201 -0.493824,1.234562c-0.019775,0.121861 -0.123457,0.493824 -0.246912,0.617279c-0.123457,0.123459 -0.144827,0.228733 -0.246912,0.370369c-0.161413,0.223949 -0.246914,0.493824 -0.370369,0.617279c-0.123457,0.123459 -0.152422,0.265709 -0.246912,0.493828c-0.066813,0.161301 -0.303555,0.209061 -0.370369,0.370365c-0.047247,0.114059 -0.123455,0.246914 -0.123455,0.246914c0,0.123455 -0.123457,0.24691 -0.246912,0.370369c0,0 0,0.123455 -0.123457,0.123455c0,0 0,0.123455 -0.123455,0.123455c0,0 -0.123457,0.123459 -0.123457,0.246914c0,0 -0.123455,0.123455 -0.123455,0.123455c-0.123457,0.123455 -0.180099,0.085609 -0.246912,0.246914c-0.047243,0.114059 -0.036161,0.159615 -0.123457,0.24691c-0.087297,0.087296 -0.123457,0.123455 -0.246912,0.246914c0,0 -0.123457,0.123455 -0.123457,0.123455c-0.123455,0.123455 -0.159616,0.283073 -0.246912,0.370369c-0.087296,0.087296 -0.123455,0.123455 -0.246912,0.24691c0,0 0,0.123459 -0.123455,0.123459c0,0 -0.123457,0.123455 -0.123457,0.24691c0,0.123455 -0.076208,0.132854 -0.123455,0.246914c-0.066814,0.161304 -0.199669,0.25631 -0.246914,0.370369c-0.066813,0.161301 -0.180098,0.209061 -0.246912,0.370365c-0.047247,0.114059 -0.123455,0.123459 -0.123455,0.246914c0,0.123455 -0.076212,0.25631 -0.123457,0.370369c-0.066813,0.161301 -0.076208,0.25631 -0.123455,0.370369c-0.066814,0.161304 -0.123457,0.24691 -0.123457,0.24691c-0.123455,0.246914 -0.123455,0.370369 -0.123455,0.370369c-0.123457,0.123455 -0.076212,0.25631 -0.123457,0.370369c-0.066813,0.161301 -0.07621,0.132854 -0.123455,0.24691c-0.066814,0.161304 -0.123457,0.123455 -0.123457,0.246914c0,0.123455 -0.123457,0.123455 -0.123457,0.24691c0,0 -0.123455,0.123459 -0.123455,0.123459c0,0 -0.123457,0.123455 -0.123457,0.123455c0,0 0.087296,-0.03616 0,-0.123455c-0.087296,-0.087296 -0.123455,0 -0.123455,-0.123459l0,-0.24691l0,0" id="svg_7" fill-opacity="0" stroke-opacity="null" stroke-width="2" stroke="currentColor" fill="none"/>
  <path d="m35.975243,16.704517c0,0 0,-0.123457 0,-0.246912c0,-0.123457 0,-0.123457 0,-0.246912c0,-0.123457 0,-0.246913 0,-0.370369c0,-0.123456 0,-0.246912 0,-0.246912c0,-0.246913 0,-0.246913 0,-0.246913c0.123455,-0.123456 0.123455,-0.123456 0.123455,-0.123456c0,0 0,0 0.123455,0c0,0 0.123459,0.123456 0.123459,0.246912c0,0.246913 0.028965,0.51262 0.123455,0.740738c0.066814,0.161303 0.123455,0.246912 0.123455,0.370367c0,0.123457 0,0.370369 0,0.493824c0,0.123457 0,0.123457 0,0.246912c0,0.123457 -0.123455,0.246914 -0.123455,0.246914c-0.123455,0.123455 -0.123455,0.123455 -0.123455,0.123455c0,0 -0.03616,0.036158 -0.123459,0.123457c-0.087296,0.087296 -0.03616,0.159615 -0.123455,0.246912c-0.087296,0.087296 -0.180096,-0.037848 -0.24691,0.123455c-0.047245,0.114059 0,0.123457 -0.123459,0.246912c0,0 0,0.123457 -0.123455,0.123457c0,0 0,-0.123457 0,-0.123457c0,-0.246912 0,-0.493824 0,-0.617279c0,-0.246912 0,-0.370369 0,-0.493826c0,-0.123455 0.123455,-0.123455 0.123455,-0.246912c0,0 0,-0.123455 0,-0.123455c0,-0.123457 0,-0.123457 0,-0.246912c0,-0.123457 0,-0.123457 0,-0.246912l0,0l0,0" id="svg_8" fill-opacity="0" stroke-opacity="null" stroke-width="2" stroke="currentColor" fill="none"/>
 </g>
</svg>